<?xml version="1.0" encoding="utf-8"?>
<svg version="1.1" xmlns="http://www.w3.org/2000/svg" xmlns:xlink="http://www.w3.org/1999/xlink" x="0px" y="0px" width="1080px"
	 height="1080px" viewBox="0 0 1080 1080" style="enable-background:new 0 0 1080 1080;" xml:space="preserve">
<g id="R">
	<path id="R_00000129180160132363610030000002409287983716078779_" d="M585.58,141.87l43.95,56.2l-48.02,37.59l-11.01,8.62
		l13.93,1.17c6.8,0.57,27.48,3.93,37.89,7.03c16.34,4.87,29.53,10.65,41.5,18.17l2.57,1.61l2.73-1.32l56.44-27.21l6.05,12.47
		l1.84,3.8l4.15-0.82l47.26-9.3l9.37,47.68l0.66,3.37l3.32,0.88l47.66,12.62l-16.34,61.79l-1.34,5.06l4.99,1.57l60.93,19.24
		l-21.64,68.59l-27.24,9.21l-6.6,2.23l3.72,5.89l32.93,52.21l3.24,5.13l4.78-3.74l10.59-8.29l43.58,58.25L789.99,717.26l-0.53,0.45
		l-0.4,0.57c-12.61,17.91-26.9,30.83-42.92,44.69l-7.43,6.42l9.36,2.96l26.57,8.39l-23.84,75.55l-39.04-12.33l-5.48-1.73l-1.47,5.56
		l-10.48,39.63l-73.83-19.54l-2.84-0.75l-2.2,1.95l-49.61,43.99l-12.72-14.35l-3.42-3.86l-4.06,3.18l-51.23,40.1l-58.89-75.29
		l13.38-20.62l3.77-5.81l-6.51-2.34c-14.1-5.07-27.88-12.4-39.68-18.87l-2.4-1.32l-2.5,1.13l-47.17,21.4l-32.89-66.11l-5.15-10.34
		l-4.76,10.53l-6.59,14.58l-73.37-19.42l18.75-61.69l1.58-5.19l-5.17-1.63l-60.96-19.25l22.67-71.85l23.67-7.33l6.1-1.89l-2.78-5.74
		l-13.6-28.05l-2-4.13l-4.42,1.25l-13.69,3.87l-59.03-75.48l71.2-55.74l2.65-2.07l-0.65-3.3l-12.41-63.16l101.75-20.01l1.84-0.36
		l1.23-1.42c1.55-1.79,3.02-3.49,4.42-5.12c5.71-6.64,10.21-11.88,15.45-16.65l5.31-4.84l-6.06-3.85l-21.83-13.86l23.48-74.41
		l39.08,12.34l5.48,1.73l1.47-5.56l10.47-39.6l73.38,19.43l5.57,15.39l2.57,7.12l5.96-4.66L585.58,141.87 M586.52,134.17
		l-116.75,91.4l-6.54-18.09l-81.46-21.56l-11.87,44.9l-44.31-13.99l-26.4,83.67l25.39,16.12c-6.82,6.21-12.41,13.13-20.32,22.23
		l-107.13,21.07l13.47,68.54l-75.52,59.12l64.68,82.7l17.23-4.87l13.6,28.05l-26.42,8.18l-25.18,79.82l66.19,20.9l-20.4,67.13
		l83.35,22.06l8.5-18.81l35.24,70.85L403.85,820c13.57,7.44,26.69,14.27,40.46,19.22l-15.51,23.9l64.68,82.7l55.55-43.48
		l16.35,18.46l53.71-47.63l79.13,20.95l11.88-44.94l44.27,13.98l27.14-86.01l-31.79-10.04c16.15-13.97,30.88-27.3,43.81-45.68
		l151.38-129l-50.02-66.85l-15,11.74l-32.93-52.21l29.88-10.1l24.13-76.47l-66.16-20.89l17.75-67.1l-52.96-14.02l-10.43-53.06
		l-52.64,10.35l-8.43-17.39l-61.36,29.58c-12.48-7.85-26.18-13.81-42.85-18.78c-10.52-3.14-31.48-6.61-39-7.24l52.33-40.97
		L586.52,134.17L586.52,134.17z"/>
</g>
</svg>
