<?xml version="1.0" encoding="UTF-8"?><svg id="Layer_1" xmlns="http://www.w3.org/2000/svg" width="64" height="64" viewBox="0 0 64 64"><path d="m56.37,13.83L33.76.77c-2.79-1.58-6.35-.56-6.35,3.44v5.91l-4.91-2.83c-2.79-1.61-6.35-.56-6.35,3.41v6.9l-5.64-3.26c-2.79-1.58-6.35-.56-6.35,3.41v26.3c0,2.99.76,4.6,3.53,6.18l22.09,12.78c3.98,2.29,6.8.73,6.8-3.98v-6.08l5.19,3.01c3.98,2.26,6.8.73,6.8-3.98v-5.11l4.46,2.57c3.98,2.29,6.8.76,6.8-3.98v-25.57c0-2.93-.96-4.6-3.47-6.07Zm-24.38,44.5c0,.28-.17.4-.42.25l-21.59-12.47c-.96-.56-1.21-1.02-1.21-2.14v-24.66c0-.25.2-.39.48-.25l21.5,12.42c.9.54,1.24.93,1.24,2.14v24.72Zm11.99-7.05c0,.28-.17.37-.42.23l-6.97-4.02v-14.04c0-2.91-.96-4.57-3.47-6.04l-12.36-7.14v-8.01c0-.25.23-.42.48-.25l21.5,12.42c.9.54,1.24.93,1.24,2.14v24.72Zm11.26-6.49c0,.28-.17.37-.42.23l-6.24-3.59v-15.03c0-2.91-.93-4.57-3.47-6.07l-13.09-7.55v-7.01c0-.28.2-.42.48-.25l21.5,12.42c.9.54,1.24.93,1.24,2.14v24.72Z" fill="#fff"/></svg>