<?xml version="1.0" encoding="UTF-8"?><svg id="Layer_1" xmlns="http://www.w3.org/2000/svg" width="64" height="64" viewBox="0 0 64 64"><path d="m53.71,57.21H10.52c-1.84,0-3.13,1.26-3.13,3.07s1.29,3.13,3.13,3.13h43.19c1.84,0,3.07-1.26,3.07-3.13s-1.23-3.07-3.07-3.07Z" fill="#fff"/><path d="m29.77,50.14c.66.71,1.46,1.07,2.37,1.07.97,0,1.08-.05,2.38-1.02l19.47-19.77c.72-.68,1.02-1.38,1.02-2.44,0-1.77-1.21-3.01-2.95-3.01-.92,0-1.74.31-2.39.91l-3.57,3.63-11.66,13.13.77-12.47V3.72c0-1.84-1.29-3.13-3.13-3.13s-3.13,1.26-3.13,3.13v26.36s.77,12.56.77,12.56l-11.83-13.23-3.27-3.63c-.66-.66-1.31-.92-2.33-.92-1.77,0-2.95,1.21-2.95,3.01,0,.77.41,1.78.98,2.4l19.46,19.87Z" fill="#fff"/></svg>