<?xml version="1.0" encoding="UTF-8"?><svg id="Layer_1" xmlns="http://www.w3.org/2000/svg" width="64" height="64" viewBox="0 0 64 64"><path d="m19.46,19.46c.97-.97.97-2.65,0-3.66l-6.46-6.4c-.97-1-2.62-1-3.63,0s-.97,2.62,0,3.63l6.43,6.43c.97,1,2.68,1,3.66,0Zm-5.22,12.56c0-1.39-1.18-2.56-2.56-2.56H2.56C1.18,29.45,0,30.63,0,32.01s1.18,2.56,2.56,2.56h9.11c1.39,0,2.56-1.18,2.56-2.56Zm5.22,12.53c-.97-.97-2.68-.97-3.66,0l-6.43,6.46c-.97.97-.97,2.65,0,3.63,1,.97,2.65.97,3.63,0l6.46-6.43c.97-.97.97-2.65,0-3.66Zm12.53,5.22c-1.39,0-2.56,1.18-2.56,2.56v9.11c0,1.39,1.18,2.56,2.56,2.56s2.59-1.18,2.59-2.56v-9.11c0-1.39-1.18-2.56-2.59-2.56Zm12.56-5.22c-.97,1-.97,2.68,0,3.66l6.46,6.43c.97.97,2.62.97,3.63,0,.97-.97.97-2.65,0-3.63l-6.43-6.46c-.97-.97-2.68-.97-3.66,0Zm5.22-12.53c0,1.39,1.18,2.56,2.56,2.56h9.08c1.41,0,2.59-1.18,2.59-2.56s-1.18-2.56-2.59-2.56h-9.08c-1.39,0-2.56,1.18-2.56,2.56Zm-5.22-12.56c.97,1,2.68,1,3.66,0l6.43-6.43c.97-1,.97-2.65,0-3.63-1-1-2.65-1-3.63,0l-6.46,6.4c-.97,1-.97,2.68,0,3.66Zm-12.56-5.19c1.42,0,2.59-1.18,2.59-2.59V2.59c0-1.42-1.18-2.59-2.59-2.59s-2.56,1.18-2.56,2.59v9.08c0,1.42,1.18,2.59,2.56,2.59Z" fill="#fff"/></svg>