<?xml version="1.0" encoding="UTF-8"?><svg id="Layer_1" xmlns="http://www.w3.org/2000/svg" width="64" height="64" viewBox="0 0 64 64"><path d="m17.56,60.8h28.88c5.17,0,8.02-2.72,8.02-7.91v-16.87h.19c2.42-.52,3.76-2.47,3.76-5.28v-7.23c0-3.35-1.87-5.47-5.22-5.47h-5.55c1.46-1.46,2.31-3.44,2.31-5.72,0-5.33-4.2-9.12-9.54-9.12-3.85,0-7.04,2.12-8.44,5.8-1.4-3.68-4.56-5.8-8.44-5.8-5.3,0-9.54,3.79-9.54,9.12,0,2.28.85,4.26,2.34,5.72h-5.55c-3.22,0-5.22,2.12-5.22,5.47v7.23c0,2.8,1.32,4.75,3.74,5.28h.19v16.87c0,5.19,2.86,7.91,8.05,7.91Zm11.98-4.12h-12.04c-2.28,0-3.57-1.29-3.57-3.57v-16.9h15.61v20.47Zm4.89,0v-20.47h15.61v16.9c0,2.28-1.29,3.57-3.57,3.57h-12.04Zm-4.89-24.62H11.93c-1.37,0-1.92-.58-1.92-1.95v-5.99c0-1.37.55-1.92,1.92-1.92h17.62v9.87Zm4.89,0v-9.87h17.67c1.37,0,1.9.55,1.9,1.92v5.99c0,1.37-.52,1.95-1.9,1.95h-17.67Zm-4.7-14.02h-4.29c-4.31,0-6.84-2.45-6.84-5.47s2.2-4.78,5.22-4.78c3.27,0,5.91,2.47,5.91,6.54v3.71Zm4.51,0v-3.71c0-4.07,2.64-6.54,5.91-6.54,3.02,0,5.22,1.76,5.22,4.78s-2.5,5.47-6.84,5.47h-4.29Z" fill="#fff"/></svg>