<?xml version="1.0" encoding="UTF-8"?><svg id="Layer_1" xmlns="http://www.w3.org/2000/svg" width="65" height="65" xmlns:xlink="http://www.w3.org/1999/xlink" viewBox="0 0 65 65"><defs><clipPath id="clippath"><path d="m15.2,57.31h6.21c.57,0,1,.17,1.43.6l4.41,4.38c3.61,3.63,6.95,3.61,10.56,0l4.41-4.38c.46-.43.86-.6,1.46-.6h6.18c5.12,0,7.5-2.35,7.5-7.5v-6.18c0-.6.17-1,.6-1.46l4.38-4.41c3.63-3.61,3.61-6.95,0-10.56l-4.38-4.41c-.43-.43-.6-.86-.6-1.43v-6.21c0-5.09-2.35-7.5-7.5-7.5h-6.18c-.6,0-1-.14-1.46-.57l-4.41-4.38c-3.61-3.63-6.95-3.61-10.56,0l-4.41,4.38c-.43.43-.86.57-1.43.57h-6.21c-5.12,0-7.5,2.35-7.5,7.5v6.21c0,.57-.14,1-.57,1.43l-4.38,4.41c-3.63,3.61-3.61,6.95,0,10.56l4.38,4.41c.43.46.57.86.57,1.46v6.18c0,5.12,2.37,7.5,7.5,7.5Z" fill="none"/></clipPath></defs><g clip-path="url(#clippath)"><rect x=".04" y="0" width="65" height="65" fill="#fff"/></g></svg>