<?xml version="1.0" encoding="UTF-8"?><svg id="Layer_1" xmlns="http://www.w3.org/2000/svg" width="65" height="65" xmlns:xlink="http://www.w3.org/1999/xlink" viewBox="0 0 65 65"><defs><clipPath id="clippath"><path d="m15.18,57.31h6.18c.6,0,1.03.17,1.46.6l4.41,4.38c3.61,3.63,6.95,3.61,10.56,0l4.41-4.38c.43-.43.86-.6,1.46-.6h6.18c5.12,0,7.5-2.35,7.5-7.5v-6.18c0-.6.17-1,.6-1.46l4.35-4.41c3.63-3.61,3.61-6.92,0-10.56l-4.35-4.41c-.43-.43-.6-.86-.6-1.43v-6.21c0-5.09-2.35-7.5-7.5-7.5h-6.18c-.6,0-1.03-.14-1.46-.57l-4.41-4.38c-3.61-3.63-6.95-3.61-10.56,0l-4.41,4.38c-.43.43-.86.57-1.46.57h-6.18c-5.12,0-7.5,2.35-7.5,7.5v6.21c0,.57-.14,1-.57,1.43l-4.38,4.41c-3.63,3.63-3.61,6.95,0,10.56l4.38,4.41c.43.46.57.86.57,1.46v6.18c0,5.12,2.37,7.5,7.5,7.5Zm0-4.55c-2.55,0-2.95-.4-2.95-2.95v-7.7c0-.86-.26-1.52-.89-2.15l-5.41-5.38c-1.8-1.83-1.8-2.35,0-4.18l5.41-5.38c.63-.63.89-1.29.89-2.17v-7.7c0-2.58.37-2.95,2.95-2.95h7.7c.89,0,1.55-.23,2.17-.89l5.38-5.41c1.83-1.8,2.35-1.8,4.15,0l5.41,5.41c.6.66,1.29.89,2.15.89h7.7c2.55,0,2.95.4,2.95,2.95v7.7c0,.89.29,1.55.92,2.17l5.41,5.38c1.8,1.83,1.8,2.35,0,4.18l-5.41,5.38c-.63.63-.92,1.29-.92,2.15v7.7c0,2.55-.4,2.95-2.95,2.95h-7.7c-.86,0-1.55.26-2.15.92l-5.41,5.41c-1.8,1.8-2.32,1.8-4.15,0l-5.38-5.41c-.63-.66-1.29-.92-2.17-.92h-7.7Z" fill="none"/></clipPath></defs><g clip-path="url(#clippath)"><rect x=".01" y="0" width="65" height="65" fill="#fff"/></g></svg>