<?xml version="1.0" encoding="UTF-8"?><svg id="Layer_1" xmlns="http://www.w3.org/2000/svg" width="64" height="64" viewBox="0 0 64 64"><path d="m54.03,27.01L14.1,3.67c-1.15-.63-2.29-.95-3.39-.95-2.91,0-4.78,2.16-4.78,5.5v47.56c0,3.34,1.88,5.5,4.78,5.5,1.04,0,2.15-.31,3.4-.96l39.92-23.33c3.03-1.75,4.05-3.01,4.05-4.99,0-2.24-1.37-3.44-4.05-4.99ZM12.57,53.56c-.09,0-.13-.07-.13-.21V10.65c0-.14.04-.21.13-.21.04,0,.09,0,.18.06l36.68,21.41s.07.07.07.08c0,.01-.03.06-.13.12L12.74,53.5c-.06.04-.12.06-.17.06Z" fill="#fff"/></svg>