<?xml version="1.0" encoding="UTF-8"?><svg id="Layer_1" xmlns="http://www.w3.org/2000/svg" width="66" height="52.46" viewBox="0 0 66 52.46"><path d="m64.97,38.8l-10.54-8.73c-.61-.49-1.33-.75-2.07-.75-1.69,0-2.78,1.08-2.78,2.75v5.29h-4.68c-2.75,0-4.5-.91-6.7-3.47l-6.58-7.68,6.58-7.67c2.2-2.56,3.96-3.47,6.71-3.47h4.68v5.29c0,1.67,1.09,2.75,2.78,2.75.74,0,1.46-.26,2.09-.76l10.52-8.71c.65-.53,1.02-1.25,1.04-2.03.01-.8-.34-1.56-1.03-2.16L54.43.72c-.59-.47-1.31-.72-2.07-.72-1.69,0-2.78,1.07-2.78,2.73v5.71h-4.82c-4.92,0-7.91,1.45-11.43,5.56l-6.1,7.13-5.92-6.91c-3.59-4.15-6.46-5.55-11.4-5.55H3.56c-2.1,0-3.56,1.36-3.56,3.31s1.5,3.31,3.56,3.31h6.49c2.52,0,4.21.92,6.43,3.49l6.38,7.45-6.38,7.45c-2.22,2.58-3.91,3.5-6.43,3.5H3.56c-2.06,0-3.56,1.39-3.56,3.31s1.46,3.31,3.56,3.31h6.35c4.93,0,7.81-1.4,11.4-5.56l5.92-6.9,6.1,7.13c3.52,4.1,6.51,5.56,11.43,5.56h4.82v5.71c0,1.66,1.09,2.73,2.78,2.73.77,0,1.48-.25,2.09-.73l10.55-8.76c.67-.58,1.02-1.34,1.01-2.14-.01-.78-.38-1.5-1.03-2.03Z" fill="#fff"/></svg>