<?xml version="1.0" encoding="UTF-8"?><svg id="Layer_1" xmlns="http://www.w3.org/2000/svg" width="60.44" height="66" viewBox="0 0 60.44 66"><path d="m36.75,6.29v-3.25c0-2.24-1.33-3.04-2.47-3.04-.67,0-1.4.26-2.12.76l-9.12,6.42c-.9.65-1.4,1.51-1.39,2.44,0,.93.5,1.79,1.4,2.43l9.14,6.42c.7.48,1.41.73,2.08.73,1.14,0,2.47-.79,2.47-3.02v-2.83c9.97,2.87,16.82,11.92,16.82,22.42,0,12.88-10.47,23.35-23.35,23.35S6.87,48.66,6.87,35.78c0-7.49,3.61-14.56,9.69-18.91,1.61-1.22,2.05-3.13,1.08-4.76-.61-.97-1.67-1.56-2.84-1.56-.8,0-1.57.27-2.2.76C4.59,17.08,0,26,0,35.78c0,16.66,13.56,30.22,30.22,30.22s30.22-13.56,30.22-30.22c0-14.17-9.91-26.45-23.69-29.49Z"/></svg>