<?xml version="1.0" encoding="UTF-8"?><svg id="Layer_1" xmlns="http://www.w3.org/2000/svg" width="91.03" height="64" viewBox="0 0 91.03 64"><path d="m64.86,3.14c-2.21,0-3.94,1.7-3.94,3.88v49.93c0,2.16,1.77,3.91,3.94,3.91s3.98-1.72,3.98-3.91V7.02c0-2.17-1.75-3.88-3.98-3.88Z" fill="#fff"/><path d="m87.05,3.14c-2.21,0-3.94,1.7-3.94,3.88v49.93c0,2.16,1.77,3.91,3.94,3.91s3.98-1.75,3.98-3.91V7.02c0-2.14-1.78-3.88-3.98-3.88Z" fill="#fff"/><path d="m47.33,26.66L8.79,4.13c-1.2-.66-2.4-.99-3.57-.99C2.1,3.14,0,5.52,0,9.06v45.88C0,58.48,2.1,60.86,5.22,60.86c1.11,0,2.28-.33,3.59-1.01l38.51-22.51c3.11-1.8,4.21-3.2,4.21-5.34,0-2.44-1.48-3.76-4.21-5.34ZM7.5,51.86V12.15s34.02,19.85,34.02,19.85L7.5,51.86Z" fill="#fff"/></svg>