<?xml version="1.0" encoding="UTF-8"?><svg id="Layer_1" xmlns="http://www.w3.org/2000/svg" width="64" height="64" viewBox="0 0 64 64"><path d="m46.46.97h-28.92c-6.36,0-9.54,3.19-9.54,9.66v42.74c0,6.43,3.17,9.66,9.54,9.66h28.92c6.36,0,9.54-3.26,9.54-9.66V10.63c0-6.43-3.17-9.66-9.54-9.66Zm4.6,52.3c0,3.07-1.66,4.81-4.83,4.81h-28.48c-3.17,0-4.81-1.72-4.81-4.81h.02V10.69c0-3.05,1.64-4.77,4.81-4.77h28.46c3.17,0,4.83,1.72,4.83,4.77v42.57Z"/><path d="m38.12,39.66c-1.64,1.3-3.7,2.12-6.03,2.12-4.68,0-8.59-3.28-9.57-7.67h2.19c1.11,0,1.34-1.05.74-1.87l-3.89-5.44c-.65-.88-1.72-.95-2.39,0l-3.84,5.44c-.59.84-.34,1.87.74,1.87h2.75c1.02,6.45,6.57,11.36,13.3,11.36l-.02-.02c3.19,0,6.15-1.18,8.21-2.86,1.18-.88,1.2-2.12.61-2.86-.53-.67-1.6-.95-2.79-.08Z"/><path d="m48.14,29.83h-2.74c-1.01-6.44-6.57-11.38-13.3-11.38v.02c-3.19,0-6.15,1.18-8.25,2.86-1.13.88-1.2,2.12-.61,2.86.55.67,1.64.95,2.79.08,1.64-1.3,3.7-2.12,6.07-2.12,4.66,0,8.59,3.3,9.55,7.69h-2.2c-1.07,0-1.32,1.05-.74,1.87l3.89,5.44c.65.88,1.76.95,2.44,0l3.82-5.44c.61-.84.34-1.87-.71-1.87Z"/></svg>