<?xml version="1.0" encoding="UTF-8"?>
<svg id="_圖層_1" data-name="圖層 1" xmlns="http://www.w3.org/2000/svg" width="30" height="30" viewBox="0 0 32 32">
  <defs>
    <style>
      .cls-1, .cls-2 {
        stroke-width: 0px;
      }

      .cls-2 {
        fill: #fff;
      }
    </style>
  </defs>
  <polygon class="cls-1" points="2.39 16.11 15.94 2.56 19.91 6.53 13.14 13.3 29.07 13.3 29.07 18.92 13.14 18.92 19.91 25.69 15.94 29.66 2.39 16.11"/>
  <path class="cls-2" d="M15.94,3.98l2.56,2.56-7.77,7.77h17.34v3.62H10.73l7.77,7.77-2.56,2.56L3.8,16.11,15.94,3.98M15.94,1.15l-1.41,1.41L2.39,14.7l-1.41,1.41,1.41,1.41,12.14,12.14,1.41,1.41,1.41-1.41,2.56-2.56,1.41-1.41-1.41-1.41-4.35-4.35h14.52v-7.62h-14.52l4.35-4.35,1.41-1.41-1.41-1.41-2.56-2.56-1.41-1.41h0Z"/>
</svg>