<?xml version="1.0" encoding="UTF-8"?>
<svg id="_圖層_1" data-name="圖層 1" xmlns="http://www.w3.org/2000/svg" width="30" height="30" viewBox="0 0 32 32">
  <defs>
    <style>
      .cls-1, .cls-2 {
        stroke-width: 0px;
      }

      .cls-2 {
        fill: #fff;
      }
    </style>
  </defs>
  <g>
    <polygon class="cls-1" points="16.69 29.4 16.69 24.02 20.07 24.02 15.08 19.03 18.89 15.22 23.87 20.21 23.87 16.83 29.26 16.83 29.26 29.4 16.69 29.4"/>
    <path class="cls-2" d="M18.89,16.64l5.98,5.98v-4.79h3.39v10.57h-10.57v-3.39h4.79l-5.98-5.98,2.39-2.39M18.89,13.81l-1.41,1.41-2.39,2.39-1.41,1.41,1.41,1.41,2.57,2.57h-1.96v7.39h14.57v-14.57h-7.39v1.96l-2.57-2.57-1.41-1.41h0Z"/>
  </g>
  <g>
    <polygon class="cls-1" points="8.13 12.08 8.13 15.45 2.74 15.45 2.74 2.88 15.31 2.88 15.31 8.27 11.93 8.27 16.92 13.25 13.11 17.06 8.13 12.08"/>
    <path class="cls-2" d="M14.31,3.88v3.39h-4.79l5.98,5.98-2.39,2.39-5.98-5.98v4.79h-3.39V3.88h10.57M16.31,1.88H1.74v14.57h7.39v-1.96l2.57,2.57,1.41,1.41,1.41-1.41,2.39-2.39,1.41-1.41-1.41-1.41-2.57-2.57h1.96V1.88h0Z"/>
  </g>
</svg>