<?xml version="1.0" encoding="UTF-8"?>
<svg id="Layer_2" xmlns="http://www.w3.org/2000/svg" viewBox="0 0 449.96 446.78">
  <g id="Logomark">
    <path d="M253.83,0l-45.45,27.67,9.25,15.21L167.29,5.66l-31.62,42.81,12.82,9.84c-13.07,6.36-22.11,11.65-34.74,22.44-4.57,3.91-6.4,5.71-6.4,5.71l-32.46-5.52-2.24,10.88-30.35.57-1.64,14.89-11.22,4.44,7.94,20.06-23.98,14.6,32.78,53.89-14.65-10.84L0,232.11l37.96,28.07-7.56,36.68,51.63,10.65-25.87,20.76,3.44,48.99,62.74-4.41c3.38,2.64,13.04,8.93,14.21,9.61l22.25,56.23,26.11-10.34,11.21,18.43,45.3-27.58-7.18-13.89,48.43,35.81,31.52-42.67-16.16-12.2c15.44-6.82,32.55-16.52,42.38-23.23l31.35,9.82,6.11-17.93,32.35-2.27-.92-13.14,11.21-4.44-7.94-20.06,23.99-14.6-32.55-53.52,14.33,10.59,31.62-42.81-37.96-28.07,7.56-36.69-44.71-9.22-3.3,16-8.89-6.58c.08-2.34.07-4.66-.03-6.95l31.15-25-3.41-48.65-64.75,4.55c-3.18-2.56-11.14-7.98-11.65-8.3l-22.81-57.66-26.11,10.34L253.83,0h0Z"/>
  </g>
</svg>