<?xml version="1.0" encoding="UTF-8"?>
<svg id="Layer_2" xmlns="http://www.w3.org/2000/svg" viewBox="0 0 1135 320">
  <g id="Wordmark">
    <g id="Standard">
      <path d="M120.05,320c-37.17,0-66.48-9.4-87.91-28.19C10.72,273.01,0,247.25,0,214.51h46.19c.14,20.39,6.69,36.34,19.66,47.85,12.97,11.52,31.03,17.27,54.2,17.27,21.08,0,37.97-4.47,50.66-13.42,12.69-8.95,19.04-20.98,19.04-36.1,0-11.93-4.54-21.6-13.63-29.02-9.09-7.42-24.38-13.7-45.88-18.83l-33.91-8.11c-31.35-7.49-54.2-17.93-68.56-31.31-14.36-13.38-21.53-30.83-21.53-52.33,0-18.17,4.58-34.05,13.73-47.65,9.15-13.59,22.02-24.14,38.6-31.63C75.14,3.75,94.53,0,116.72,0c33.43,0,60.03,8.74,79.79,26.22,19.77,17.48,30.13,41.34,31.11,71.57h-44.73c-1.11-17.89-7.63-31.94-19.56-42.13-11.93-10.19-27.67-15.29-47.23-15.29s-34.05,4.47-45.98,13.42c-11.93,8.95-17.89,20.43-17.89,34.43,0,11.24,4.58,20.36,13.73,27.36,9.15,7.01,24.34,13.08,45.57,18.21l33.5,7.91c31.07,7.35,53.99,17.96,68.76,31.83,14.77,13.87,22.16,31.91,22.16,54.1,0,18.59-4.79,34.82-14.36,48.69-9.57,13.87-23.03,24.62-40.36,32.25-17.34,7.63-37.73,11.44-61.17,11.44Z"/>
      <path d="M413,320c-28.44,0-53.54-6.73-75.32-20.18-21.78-13.45-38.77-32.18-50.98-56.18-12.21-24-18.31-51.81-18.31-83.43s6.1-59.85,18.31-83.85c12.2-24,29.16-42.72,50.87-56.18C359.29,6.73,384.43,0,413,0c22.61,0,43.1,4.44,61.48,13.32,18.38,8.88,33.6,21.4,45.67,37.56,12.07,16.16,19.9,35.27,23.51,57.32h-47.02c-4.58-21.08-14.32-37.35-29.23-48.79-14.91-11.44-32.91-17.17-53.99-17.17s-37.94,4.93-52.64,14.77c-14.7,9.85-26.04,23.65-34.02,41.4-7.98,17.76-11.96,38.35-11.96,61.79s3.95,43.97,11.86,61.59c7.91,17.62,19.25,31.35,34.02,41.2,14.77,9.85,32.35,14.77,52.74,14.77s38.87-5.69,53.78-17.06c14.91-11.37,24.79-27.53,29.65-48.48h46.81c-3.61,21.92-11.44,40.96-23.51,57.11-12.07,16.16-27.29,28.64-45.67,37.45-18.38,8.81-38.88,13.21-61.48,13.21Z"/>
      <path d="M721.35,320c-28.44,0-53.54-6.73-75.32-20.18-21.78-13.45-38.77-32.18-50.98-56.18-12.21-24-18.31-51.81-18.31-83.43s6.1-59.85,18.31-83.85c12.2-24,29.16-42.72,50.87-56.18,21.71-13.45,46.85-20.18,75.42-20.18,22.61,0,43.1,4.44,61.48,13.32,18.38,8.88,33.6,21.4,45.67,37.56,12.07,16.16,19.9,35.27,23.51,57.32h-47.02c-4.58-21.08-14.32-37.35-29.23-48.79-14.91-11.44-32.91-17.17-53.99-17.17s-37.94,4.93-52.64,14.77c-14.7,9.85-26.04,23.65-34.02,41.4-7.98,17.76-11.96,38.35-11.96,61.79s3.95,43.97,11.86,61.59c7.91,17.62,19.25,31.35,34.02,41.2,14.77,9.85,32.35,14.77,52.74,14.77s38.87-5.69,53.78-17.06c14.91-11.37,24.79-27.53,29.65-48.48h46.81c-3.61,21.92-11.44,40.96-23.51,57.11-12.07,16.16-27.29,28.64-45.67,37.45-18.38,8.81-38.88,13.21-61.48,13.21Z"/>
      <path d="M984.99,315.01h-100.29V4.99h103.41c30.38,0,56.56,6.24,78.54,18.73,21.98,12.48,38.87,30.27,50.66,53.37,11.79,23.1,17.69,50.6,17.69,82.5s-5.93,59.68-17.79,82.91c-11.86,23.23-28.99,41.13-51.39,53.68-22.4,12.56-49.35,18.83-80.83,18.83ZM930.89,274.85h51.18c36.2,0,63.01-10.2,80.42-30.59,17.41-20.39,26.11-48.62,26.11-84.68s-8.6-63.98-25.8-84.16c-17.2-20.18-43.07-30.27-77.61-30.27h-54.3v229.7Z"/>
    </g>
  </g>
</svg>