<?xml version="1.0" encoding="utf-8"?>
<svg version="1.1" xmlns="http://www.w3.org/2000/svg" xmlns:xlink="http://www.w3.org/1999/xlink" x="0px" y="0px" width="1080px"
	 height="1080px" viewBox="0 0 1080 1080" style="enable-background:new 0 0 1080 1080;" xml:space="preserve">
<g id="G">
	<path id="G_00000134227326091501490650000010935242263762940072_" d="M889.8,470.05l-40.14,39.37
		c-2.44-13.83-9.03-49.48-9.78-52.67c-8.51-36.24-18.91-62.77-33.71-86.03c-9.72-15.27-34.11-42.82-38.3-47.53l-9.68-108.46
		l-14.56,1.3l4.23-28.81l-100.47,20.33l-4.68,34.82c-28.54-10.25-50.66-14.45-80.37-15.39c-2.66-0.08-8.2,0.05-12.66,0.19
		l36.53-39.33L521.83,128L413.52,253.53l-41.85,18.68l-16.48-21.46l-87.56,7.83l2.26,25.35l-58.46,11.83l54.29,89.6
		c-3.9,6.83-15.73,29.61-19.69,39.74L128,552.2l80.24,74.59l19.53-9.04l-42.36,82.68l86.15,44.18l12.68-24.75
		c8.37,11.74,17.61,22.72,27.51,32.71l10.07,112.73l95.27-8.51l-2.81-29.95c20.34,9.75,44.68,19.9,73.33,24.62l-9.76,25.96
		L558.09,952l38.04-40.96l20.48,10.5l87.58-131.18l19.66,39l90.08-7.85l-19.98-113.58c10.27-8.17,19.2-17.43,24.64-25.57
		c4.26-6.39,8.73-16.38,11.78-23.52L952,527.87L889.8,470.05z M826.03,655.45l-0.33,0.35l-0.19,0.44
		c-2.97,6.96-7.39,16.93-11.49,23.07c-5.35,8.02-14.37,17.25-24.75,25.31l-1.3,1.01l19.52,110.93l-80.42,7.01l-22.22-44.07
		l-90.08,134.93l-19.82-10.17l-37.13,39.98l-73.54-68.36l10.85-28.85l-3.36-0.5c-30.98-4.58-57.03-15.85-78.33-26.21
		c-0.1-0.06-0.23-0.15-0.37-0.24c-0.28-0.19-0.55-0.36-0.68-0.43l-4.5-2.42l3.24,34.56l-84.33,7.54l-9.76-109.24l-0.7-0.7
		c-10.98-10.99-21.14-23.23-30.2-36.39l-2.6-3.78l-14.34,28l-76.39-39.17l47.12-91.96l-30.63,14.18l-73.53-68.35l114.67-123.47
		l0.36-0.39l0.19-0.5c3.91-10.26,17.89-36.99,20.28-40.75l0.91-1.44l-51.98-85.78l55.62-11.25l-2.21-24.78l79.1-7.07l18.34,23.88
		l45.78-22.25l105.46-122.22l56.19,52.23l-41.8,45.01l6.63-0.26c0.14-0.01,14.31-0.56,18.88-0.41c30.16,0.95,52.34,5.35,81.86,16.22
		l3.21,1.18l5.07-37.71l89-18.01l-4.11,27.97l16.02-1.43l9.36,104.82l0.62,0.68c0.27,0.3,28.17,31.47,38.36,47.48
		c14.46,22.71,24.63,48.73,33,84.34c0.86,3.67,10.25,54.59,10.57,57.35l0.62,5.61l44.18-43.33l54.35,50.52L826.03,655.45z"/>
</g>
</svg>
