<?xml version="1.0" encoding="utf-8"?>
<svg version="1.1" xmlns="http://www.w3.org/2000/svg" xmlns:xlink="http://www.w3.org/1999/xlink" x="0px" y="0px" width="1080px"
	 height="1080px" viewBox="0 0 1080 1080" style="enable-background:new 0 0 1080 1080;" xml:space="preserve">
<g id="B">
	<path fill="#FFFFFF" id="B_00000038404215920176807810000006095507119755527844_" d="M587.51,163.9l16.4,26.95l2.4,3.95l4.3-1.7l39.72-15.73
		l37.15,93.89l0.68,1.66l1.49,0.95c0.96,0.62,14.24,9.67,19.5,13.89l1.67,1.34l2.14-0.15l105.69-7.42l5.27,75.17l-51.23,41.12
		l-2.16,1.74l0.12,2.77c0.16,3.77,0.18,7.65,0.05,11.53l-0.09,2.88l2.31,1.71l15.27,11.29l6.9,5.1l1.73-8.4l4.55-22.09l66.02,13.61
		l-11.87,57.61l-0.71,3.43l2.82,2.08l60.75,44.92l-47.77,64.67l-20.19-14.93l-22.46-16.61l14.52,23.87l53.03,87.19L859,692.43
		l-3.95,2.4l1.7,4.3l11.61,29.34l-14.14,5.6l-3.73,1.48l0.28,4.01l1.2,17.09l-50.07,3.52l-3.63,0.25l-1.17,3.45l-8.76,25.72
		l-48.72-15.25l-2.53-0.79l-2.19,1.5c-15.29,10.43-44.31,27.2-71.89,39.39l-8.54,3.77l7.45,5.62l23.41,17.67l-47.63,64.47
		l-78.72-58.21l-18.96-14.02l10.83,20.95l9.98,19.3L492.1,915.8l-16.4-26.95l-2.4-3.95l-4.3,1.7l-39.72,15.73l-36.17-91.43
		l-0.7-1.77l-1.64-0.96c-1.68-0.98-18.22-11.74-23.77-16.08l-1.66-1.3l-2.1,0.15l-102.24,7.18l-5.31-75.76l42.18-33.84l9.09-7.3
		l-11.42-2.35l-83.27-17.17l11.87-57.59l0.71-3.43l-2.82-2.08l-60.76-44.92l47.59-64.43l20.75,15.34l22.46,16.61l-14.52-23.87
		l-53.43-87.83l36.49-22.22l3.95-2.4l-1.7-4.3l-11.61-29.34l14.17-5.61l3.07-1.22l0.36-3.28l2.28-20.77l47.29-0.89l4.38-0.08
		l0.88-4.29l2.78-13.49l50.5,8.59l2.77,0.47l2-1.97c0.03-0.03,3.15-3.09,10.7-9.54c21.4-18.3,36.48-27.08,58.46-37.76l7.98-3.88
		l-7.04-5.4l-17.73-13.61l47.83-64.74l82.01,60.64L546.41,251l-14.52-23.87l-13.03-21.42L587.51,163.9 M589.35,156.37l-78.02,47.5
		l15.88,26.11l-86.42-63.9l-54.29,73.49l22,16.89c-22.44,10.91-37.96,19.99-59.63,38.53c-7.85,6.71-10.98,9.8-10.98,9.8l-55.72-9.48
		l-3.85,18.68l-52.11,0.99l-2.81,25.57l-19.26,7.63l13.62,34.44l-41.17,25.07l56.28,92.51l-25.16-18.6l-54.11,73.25l65.17,48.18
		l-12.97,62.96l88.63,18.28l-44.42,35.64l5.9,84.09l107.71-7.56c5.8,4.53,22.39,15.34,24.39,16.5l38.19,96.53l44.82-17.75
		l19.25,31.64l77.77-47.35l-12.33-23.84l83.13,61.47l54.11-73.25l-27.74-20.94c26.51-11.71,55.87-28.35,72.76-39.87l53.82,16.85
		l10.48-30.79l55.54-3.9l-1.58-22.56l19.24-7.62l-13.62-34.44l41.18-25.07l-55.88-91.87l24.6,18.19l54.29-73.49l-65.16-48.18
		l12.98-62.98l-76.75-15.83l-5.66,27.47l-15.27-11.29c0.13-4.02,0.11-8-0.05-11.94l53.47-42.92l-5.86-83.51l-111.16,7.8
		c-5.47-4.39-19.12-13.69-19.99-14.25l-39.16-98.99l-44.82,17.75L589.35,156.37L589.35,156.37z"/>
</g>
</svg>
