<?xml version="1.0" encoding="UTF-8"?>
<svg id="_圖層_1" data-name="圖層 1" xmlns="http://www.w3.org/2000/svg" viewBox="0 0 160 160">
  <defs>
    <style>
      .cls-1 {
        stroke-width: 0px;
      }
    </style>
  </defs>
  <path class="cls-1" d="M80,22.43c31.98,0,58,26.02,58,58s-26.02,58-58,58-58-26.02-58-58,26.02-58,58-58M80,8.43C40.24,8.43,8,40.67,8,80.43s32.24,72,72,72,72-32.24,72-72S119.76,8.43,80,8.43h0Z"/>
  <path class="cls-1" d="M116,70.51c0-11.01-8.68-19.94-19.4-19.94-7.05,0-13.21,3.88-16.6,9.67-3.4-5.79-9.55-9.67-16.6-9.67-10.71,0-19.4,8.93-19.4,19.94,0,2.52.47,4.92,1.3,7.13,6.41,18.97,34.7,39.78,34.7,39.78,0,0,28.28-20.81,34.7-39.78.83-2.22,1.3-4.62,1.3-7.13h0Z"/>
</svg>