<?xml version="1.0" encoding="UTF-8"?>
<svg id="_圖層_1" data-name="圖層 1" xmlns="http://www.w3.org/2000/svg" viewBox="0 0 160 160">
  <defs>
    <style>
      .cls-1 {
        stroke-width: 0px;
      }
    </style>
  </defs>
  <path class="cls-1" d="M140.38,41.22c-.86-1.32-1.74-2.62-2.68-3.87-5.09-6.8-11.36-12.66-18.49-17.3-1.59-1.04-3.21-2.02-4.89-2.93-2.04-1.11-4.14-2.12-6.29-3.03s-4.36-1.72-6.62-2.42c-2.25-.7-4.56-1.29-6.9-1.77s-4.73-.85-7.15-1.09c-2.42-.25-4.88-.37-7.36-.37-4.97,0-9.82.5-14.51,1.46-2.34.48-4.65,1.07-6.9,1.77-5.64,1.75-10.98,4.18-15.92,7.19C21.88,31.48,8,54.34,8,80.43c0,39.76,32.24,72,72,72,2.49,0,4.94-.13,7.36-.37,2.42-.25,4.81-.61,7.15-1.09,4.69-.96,9.21-2.37,13.52-4.2,2.15-.91,4.25-1.92,6.29-3.03,6.12-3.33,11.71-7.51,16.59-12.4,2.44-2.44,4.71-5.06,6.78-7.83,1.38-1.85,2.68-3.76,3.88-5.74,6.61-10.89,10.42-23.67,10.42-37.33,0-14.47-4.28-27.92-11.62-39.21ZM114.7,77.65c-6.41,18.97-34.7,39.78-34.7,39.78,0,0-28.29-20.81-34.7-39.78-.83-2.22-1.3-4.62-1.3-7.13,0-11.01,8.68-19.94,19.4-19.94,7.05,0,13.21,3.88,16.6,9.67,3.39-5.79,9.55-9.67,16.6-9.67,10.71,0,19.4,8.93,19.4,19.94h0c0,2.52-.47,4.92-1.3,7.13Z"/>
</svg>