<?xml version="1.0" encoding="UTF-8"?>
<svg id="_圖層_1" data-name="圖層 1" xmlns="http://www.w3.org/2000/svg" viewBox="0 0 32 32">
  <defs>
    <style>
      .cls-1, .cls-2 {
        stroke-width: 0px;
      }

      .cls-2 {
        fill: #fff;
      }
    </style>
  </defs>
  <path class="cls-1" d="M16,29.5c-7.44,0-13.5-6.06-13.5-13.5S8.56,2.5,16,2.5s13.5,6.06,13.5,13.5-6.06,13.5-13.5,13.5ZM8.94,13.08c-.38.92-.58,1.91-.58,2.92,0,4.21,3.43,7.64,7.64,7.64,1.01,0,2-.2,2.92-.58l-9.98-9.98ZM23.06,18.92c.38-.92.58-1.91.58-2.92,0-4.21-3.43-7.64-7.64-7.64-1.01,0-2,.2-2.92.58l9.98,9.98Z"/>
  <path class="cls-2" d="M16,3.5c6.89,0,12.5,5.61,12.5,12.5s-5.61,12.5-12.5,12.5S3.5,22.89,3.5,16,9.11,3.5,16,3.5M23.32,20.59c.84-1.33,1.32-2.9,1.32-4.59,0-4.77-3.87-8.64-8.64-8.64-1.69,0-3.26.49-4.59,1.32l11.91,11.91M16,24.64c1.69,0,3.26-.49,4.59-1.32l-11.91-11.91c-.84,1.33-1.32,2.9-1.32,4.59,0,4.77,3.87,8.64,8.64,8.64M16,1.5C8,1.5,1.5,8,1.5,16s6.5,14.5,14.5,14.5,14.5-6.5,14.5-14.5S24,1.5,16,1.5h0ZM14.99,9.43c.33-.05.67-.08,1.01-.08,3.66,0,6.64,2.98,6.64,6.64,0,.34-.03.68-.08,1.01l-7.57-7.57h0ZM16,22.64c-3.66,0-6.64-2.98-6.64-6.64,0-.34.03-.68.08-1.01l7.57,7.57c-.33.05-.67.08-1.01.08h0Z"/>
</svg>