<?xml version="1.0" encoding="UTF-8"?>
<svg id="_圖層_1" data-name="圖層 1" xmlns="http://www.w3.org/2000/svg" width="30" height="30" viewBox="0 0 32 32">
  <defs>
    <style>
      .cls-1, .cls-2 {
        stroke-width: 0px;
      }

      .cls-2 {
        fill: #fff;
      }
    </style>
  </defs>
  <path class="cls-1" d="M11.48,30.13l-6.11-10c-.93-1.5-.6-3.61.73-4.7.64-.52,1.44-.81,2.26-.81,1.08,0,2.09.49,2.76,1.31v-2.04c0-1.13,0-3.47,2.43-3.47.68,0,1.17.17,1.52.44.27-.84.87-1.56,2.21-1.56s1.94.74,2.21,1.58c.35-.29.84-.47,1.52-.47,1.33,0,1.93.76,2.2,1.6.35-.29.84-.48,1.53-.48,2.42,0,2.42,2.35,2.42,3.47v15.13s-15.68,0-15.68,0Z"/>
  <path class="cls-2" d="M17.28,10.3c1.33,0,1.43,1.09,1.43,2.47v3.81h.87v-2.69c0-1.36.07-2.47,1.43-2.47,1.28,0,1.42,1.09,1.42,2.47v2.69h.87v-1.57c0-1.36.07-2.47,1.43-2.47s1.42,1.09,1.42,2.47v1.57s0,9.42,0,9.42v3.14h-14.12l-5.82-9.52c-.66-1.06-.45-2.62.51-3.41.48-.4,1.06-.58,1.63-.58.87,0,1.74.44,2.22,1.27l1.55,2.63v-5.64c0-1.36.06-2.47,1.42-2.47s1.43,1.09,1.43,2.47v2.69h.88v-3.81c0-1.36.06-2.47,1.43-2.47M17.28,8.3c-1.2,0-2.08.42-2.65,1.24-.32-.08-.68-.13-1.08-.13-2.27,0-3.43,1.51-3.43,4.47v.09c-.55-.23-1.15-.36-1.76-.36-1.05,0-2.08.37-2.9,1.04-1.7,1.4-2.13,4.1-.94,6.01l5.81,9.51.58.96h17.25V15.01c0-2.97-1.15-4.47-3.43-4.47-.4,0-.76.05-1.09.14-.69-.99-1.71-1.26-2.64-1.26-.39,0-.75.04-1.07.13-.57-.83-1.46-1.25-2.66-1.25h0Z"/>
</svg>