<?xml version="1.0" encoding="UTF-8"?>
<svg id="_圖層_1" data-name="圖層 1" xmlns="http://www.w3.org/2000/svg" viewBox="0 0 160 160">
  <defs>
    <style>
      .cls-1 {
        stroke-width: 0px;
      }
    </style>
  </defs>
  <circle class="cls-1" cx="80.05" cy="80" r="20"/>
  <path class="cls-1" d="M129.5,30.5H30.5v99h99V30.5ZM80.05,111.2c-17.2,0-31.2-14-31.2-31.2s14-31.2,31.2-31.2,31.2,14,31.2,31.2-14,31.2-31.2,31.2ZM112,56c-4.41,0-8-3.59-8-8s3.59-8,8-8,8,3.59,8,8-3.59,8-8,8Z"/>
  <path class="cls-1" d="M8,8v144h144V8H8ZM140.3,140.3H19.7V19.7h120.6v120.6Z"/>
</svg>