<?xml version="1.0" encoding="UTF-8"?>
<svg id="_圖層_1" data-name="圖層 1" xmlns="http://www.w3.org/2000/svg" viewBox="0 0 160 160">
  <defs>
    <style>
      .cls-1 {
        stroke-width: 0px;
      }

      .cls-2 {
        fill: none;
        stroke: #000;
        stroke-miterlimit: 10;
        stroke-width: 12px;
      }
    </style>
  </defs>
  <path class="cls-1" d="M80,24c30.88,0,56,25.12,56,56s-25.12,56-56,56-56-25.12-56-56,25.12-56,56-56M80,8C40.24,8,8,40.24,8,80s32.24,72,72,72,72-32.24,72-72S119.76,8,80,8h0Z"/>
  <line class="cls-2" x1="80" y1="152" x2="80" y2="8"/>
  <g>
    <path class="cls-1" d="M86,14.27c33.59,3.04,60,31.36,60,65.73s-26.41,62.69-60,65.73V14.27Z"/>
    <path class="cls-1" d="M92,21.21c27.35,5.58,48,29.82,48,58.79s-20.65,53.22-48,58.79V21.21M80,8v144c39.76,0,72-32.24,72-72S119.76,8,80,8h0Z"/>
  </g>
</svg>