<?xml version="1.0" encoding="UTF-8"?>
<svg id="_圖層_1" data-name="圖層 1" xmlns="http://www.w3.org/2000/svg" viewBox="0 0 160 160">
  <defs>
    <style>
      .cls-1 {
        stroke-width: 0px;
      }
    </style>
  </defs>
  <path class="cls-1" d="M51,46c-15.44,0-28,12.56-28,28s12.56,28,28,28,28-12.56,28-28-12.56-28-28-28ZM51,86c-6.62,0-12-5.38-12-12s5.38-12,12-12,12,5.38,12,12-5.38,12-12,12Z"/>
  <path class="cls-1" d="M160,132.49V24H0v112h162.22l-2.22-3.51ZM16,120V40h128v67.19l-32.37-51.19-43.52,64H16ZM87.45,120l23.69-34.83,22.03,34.83h-45.72Z"/>
</svg>