<?xml version="1.0" encoding="UTF-8"?>
<svg id="_圖層_1" data-name="圖層 1" xmlns="http://www.w3.org/2000/svg" viewBox="0 0 160 160">
  <defs>
    <style>
      .cls-1 {
        stroke-width: 0px;
      }
    </style>
  </defs>
  <path class="cls-1" d="M80,24c9.55,0,24,22.34,24,56s-14.45,56-24,56-24-22.34-24-56,14.45-56,24-56M80,8c-22.09,0-40,32.24-40,72s17.91,72,40,72,40-32.24,40-72S102.09,8,80,8h0Z"/>
  <path class="cls-1" d="M80,56c33.67,0,56,14.45,56,24s-22.33,24-56,24-56-14.45-56-24,22.33-24,56-24M80,40c-39.76,0-72,17.91-72,40s32.24,40,72,40,72-17.91,72-40-32.24-40-72-40h0Z"/>
</svg>