<?xml version="1.0" encoding="UTF-8"?>
<svg id="_圖層_1" data-name="圖層 1" xmlns="http://www.w3.org/2000/svg" viewBox="0 0 160 160">
  <defs>
    <style>
      .cls-1 {
        fill: none;
        stroke: #000;
        stroke-miterlimit: 10;
        stroke-width: 16px;
      }

      .cls-2 {
        stroke-width: 0px;
      }
    </style>
  </defs>
  <path class="cls-2" d="M80,24c30.88,0,56,25.12,56,56s-25.12,56-56,56-56-25.12-56-56,25.12-56,56-56M80,8C40.24,8,8,40.24,8,80s32.24,72,72,72,72-32.24,72-72S119.76,8,80,8h0Z"/>
  <path class="cls-1" d="M80,48c17.67,0,32,14.33,32,32s-14.33,32-32,32"/>
  <g>
    <path class="cls-2" d="M40.06,80c0-22.06,17.94-40,40-40V8C40.29,8,8.06,40.24,8.06,80c0,39.76,32.24,72,72,72v-32c-22.06,0-40-17.94-40-40Z"/>
    <path class="cls-2" d="M56.06,80c0,13.23,10.77,24,24,24v-48c-13.23,0-24,10.77-24,24Z"/>
  </g>
</svg>